<svg width="113" height="113" viewBox="0 0 113 113" fill="none" xmlns="http://www.w3.org/2000/svg">
<path d="M53.9688 91.756H16.2946V11.3226H57.7882L78.1508 31.7078V63.9128H71.9584V34.2616L55.2118 17.515H22.4644V85.5862H53.9688V91.756Z" fill="black"/>
<path d="M75.0546 36.0696H53.4038V14.4188H59.5962V29.8998H75.0546V36.0696Z" fill="black"/>
<path d="M46.3752 101.903L49.6522 85.5184L80.8854 54.2852C84.3884 50.7822 90.4904 50.7822 93.9934 54.2852C95.7562 56.0254 96.7054 58.3532 96.7054 60.8392C96.7054 63.3252 95.7336 65.653 93.9934 67.3932L62.7602 98.6264L46.3752 101.903ZM55.3474 88.5468L54.2626 93.9934L59.7092 92.9086L89.6316 62.9862C90.2192 62.3986 90.5356 61.6302 90.5356 60.794C90.5356 59.9804 90.2192 59.1894 89.6316 58.6244C88.4564 57.4492 86.445 57.4492 85.2698 58.6244L55.3474 88.5468Z" fill="black"/>
<path d="M65.0202 42.262H29.5834V48.4544H65.0202V42.262Z" fill="black"/>
<path d="M65.0202 54.6468H29.5834V60.8392H65.0202V54.6468Z" fill="black"/>
<path d="M65.0202 67.009H29.5834V73.2014H65.0202V67.009Z" fill="black"/>
</svg>
