<svg width="94" height="94" viewBox="0 0 94 94" fill="none" xmlns="http://www.w3.org/2000/svg">
<path d="M90.7687 41.125L82.25 32.6121V11.75C82.25 8.51875 79.6062 5.875 76.375 5.875H70.5C67.2688 5.875 64.625 8.51875 64.625 11.75V14.9989L52.875 3.26063C51.2711 1.74488 49.8024 0 47 0C44.1976 0 42.7289 1.74488 41.125 3.26063L3.23125 41.125C1.39825 43.0344 0 44.4268 0 47C0 50.3076 2.538 52.875 5.875 52.875H11.75V88.125C11.75 91.3562 14.3938 94 17.625 94H35.25V64.625C35.25 61.3937 37.8937 58.75 41.125 58.75H52.875C56.1063 58.75 58.75 61.3937 58.75 64.625V94H76.375C79.6062 94 82.25 91.3562 82.25 88.125V52.875H88.125C91.462 52.875 94 50.3076 94 47C94 44.4268 92.6017 43.0344 90.7687 41.125Z" fill="black"/>
</svg>
